<svg width="25" height="25" viewBox="0 0 20 20" fill="none" 
xmlns="http://www.w3.org/2000/svg"> <path d="M18.6665 4.62485C18.0285 4.90819 
17.3432 5.09885 16.6239 5.18485C17.3585 4.74485 17.9219 4.04819 18.1872 
3.21752C17.5005 3.62485 16.7392 3.92085 15.9285 4.08085C15.2799 3.38952 14.3559 
2.95752 13.3332 2.95752C11.3692 2.95752 9.77719 4.55019 9.77719 6.51352C9.77719 
6.79219 9.80919 7.06419 9.86919 7.32352C6.91385 7.17552 4.29385 5.75952 2.53919 
3.60752C2.23385 4.13285 2.05852 4.74352 2.05852 5.39619C2.05852 6.62952 2.68585 
7.71819 3.63985 8.35552C3.05719 8.33685 2.50852 8.17685 2.02919 7.91085C2.02919 
7.92619 2.02919 7.94019 2.02919 7.95552C2.02919 9.67885 3.25452 11.1162 4.88185 
11.4422C4.58385 11.5235 4.26919 11.5669 3.94452 11.5669C3.71585 11.5669 3.49252 
11.5442 3.27585 11.5035C3.72852 12.9162 5.04185 13.9449 6.59785 13.9735C5.38119 
14.9275 3.84785 15.4962 2.18119 15.4962C1.89452 15.4962 1.61119 15.4795 1.33252 
15.4462C2.90652 16.4549 4.77519 17.0435 6.78385 17.0435C13.3252 17.0435 16.9012 
11.6249 16.9012 6.92552C16.9012 6.77152 16.8979 6.61819 16.8912 6.46552C17.5865 
5.96352 18.1899 5.33752 18.6665 4.62485Z" fill="#666666"/> </svg>
